<?xml version="1.0" encoding="UTF-8"?><svg xmlns="http://www.w3.org/2000/svg" width="248.25mm" height="47.61mm" viewBox="0 0 703.71 134.96"><defs><style>.c{letter-spacing:-.02em;}.d{letter-spacing:0em;}.e{letter-spacing:-.03em;}.f{letter-spacing:-.02em;}.g{letter-spacing:0em;}.h{font-family:FiraSans-Regular, Fira Sans;font-size:16.27px;}.h,.i{fill:#1d1d1b;}.j{letter-spacing:0em;}.k{letter-spacing:0em;}.l{letter-spacing:-.03em;}.m{fill:#3176ff;}</style></defs><g id="a"><g><path class="i" d="M186.11,38.04c3.69,2.79,5.54,7.94,5.54,15.44s-1.82,12.52-5.45,15.53c-3.64,3.01-8.25,4.51-13.83,4.51h-10.79V33.85h9.76c6.16,0,11.09,1.4,14.78,4.19Zm-16.96,1.49v28.3h3.73c3.37,0,6.01-1.04,7.92-3.13,1.91-2.09,2.87-5.83,2.87-11.22,0-3.75-.49-6.65-1.46-8.7-.98-2.05-2.26-3.43-3.85-4.16-1.59-.73-3.49-1.09-5.71-1.09h-3.5Z"/><path class="i" d="M205.52,29.05c.86,.86,1.29,1.92,1.29,3.19s-.43,2.32-1.29,3.16c-.86,.84-1.98,1.26-3.36,1.26s-2.44-.42-3.3-1.26c-.86-.84-1.29-1.89-1.29-3.16s.43-2.33,1.29-3.19c.86-.86,1.96-1.29,3.3-1.29s2.5,.43,3.36,1.29Zm.37,14.09v30.37h-7.35v-30.37h7.35Z"/><path class="i" d="M241.14,44.76c-1.95,.69-4.88,1.03-8.78,1.03,1.88,.84,3.26,1.89,4.16,3.13,.9,1.24,1.35,2.8,1.35,4.68,0,1.99-.49,3.75-1.46,5.28-.98,1.53-2.39,2.74-4.25,3.62-1.86,.88-4.03,1.32-6.52,1.32-1.38,0-2.58-.15-3.62-.46-.84,.57-1.26,1.32-1.26,2.24,0,1.42,1.22,2.12,3.67,2.12h4.65c2.22,0,4.16,.36,5.83,1.09,1.67,.73,2.96,1.75,3.88,3.07,.92,1.32,1.38,2.8,1.38,4.45,0,3.06-1.3,5.44-3.9,7.15-2.6,1.7-6.35,2.55-11.25,2.55-3.52,0-6.29-.36-8.29-1.09-2.01-.73-3.44-1.78-4.28-3.16s-1.26-3.14-1.26-5.28h6.6c0,1.07,.2,1.91,.6,2.53,.4,.61,1.13,1.07,2.18,1.38,1.05,.31,2.57,.46,4.56,.46,2.79,0,4.76-.34,5.91-1.03s1.72-1.68,1.72-2.99c0-1.15-.44-2.04-1.32-2.67s-2.16-.95-3.85-.95h-4.59c-2.87,0-5.03-.55-6.49-1.67-1.46-1.11-2.18-2.51-2.18-4.19,0-1.07,.32-2.1,.95-3.1,.63-1,1.5-1.84,2.61-2.53-1.84-.96-3.19-2.13-4.05-3.53-.86-1.4-1.29-3.07-1.29-5.02,0-2.18,.54-4.1,1.61-5.74,1.07-1.65,2.55-2.92,4.45-3.82,1.89-.9,4.07-1.35,6.52-1.35,3.21,.08,5.81-.16,7.78-.72,1.97-.55,4.1-1.44,6.4-2.67l1.84,5.86Zm-19.78,4.1c-.94,1.05-1.41,2.46-1.41,4.22s.48,3.29,1.44,4.36c.96,1.07,2.28,1.61,3.96,1.61s3.1-.53,4.02-1.58c.92-1.05,1.38-2.54,1.38-4.45,0-3.83-1.84-5.74-5.51-5.74-1.65,0-2.94,.53-3.88,1.58Z"/><path class="i" d="M252.53,29.05c.86,.86,1.29,1.92,1.29,3.19s-.43,2.32-1.29,3.16c-.86,.84-1.98,1.26-3.36,1.26s-2.44-.42-3.3-1.26c-.86-.84-1.29-1.89-1.29-3.16s.43-2.33,1.29-3.19c.86-.86,1.96-1.29,3.3-1.29s2.5,.43,3.36,1.29Zm.37,14.09v30.37h-7.35v-30.37h7.35Z"/><path class="i" d="M279.14,72.08c-1.07,.77-2.27,1.34-3.59,1.72-1.32,.38-2.67,.57-4.05,.57-2.99-.04-5.25-.89-6.8-2.55-1.55-1.67-2.33-4.12-2.33-7.38v-16.02h-4.76v-5.28h4.76v-6.72l7.35-.86v7.58h7.06l-.75,5.28h-6.31v15.85c0,1.49,.26,2.56,.78,3.21,.52,.65,1.33,.98,2.44,.98s2.32-.36,3.62-1.09l2.58,4.71Z"/><path class="i" d="M305.7,68.09c.36,.56,.95,.99,1.75,1.29l-1.55,4.88c-1.72-.15-3.13-.57-4.22-1.26-1.09-.69-1.92-1.74-2.5-3.16-1.03,1.53-2.33,2.67-3.88,3.42-1.55,.75-3.28,1.12-5.2,1.12-3.02,0-5.42-.86-7.18-2.58-1.76-1.72-2.64-3.98-2.64-6.77,0-3.29,1.2-5.81,3.59-7.55,2.39-1.74,5.81-2.61,10.25-2.61h3.79v-1.72c0-1.95-.45-3.32-1.35-4.1-.9-.78-2.35-1.18-4.33-1.18-2.22,0-4.9,.54-8.04,1.61l-1.72-4.99c3.79-1.45,7.46-2.18,11.02-2.18,7.77,0,11.65,3.48,11.65,10.45v12.75c0,1.19,.18,2.06,.55,2.61Zm-7.78-2.78v-6.14h-3.04c-4.75,0-7.12,1.76-7.12,5.28,0,1.46,.36,2.58,1.09,3.39,.73,.8,1.8,1.21,3.21,1.21,2.49,0,4.44-1.24,5.86-3.73Z"/><path class="i" d="M315.17,72.34c-1.32-1.36-1.98-3.28-1.98-5.77V30.98l7.35-.8v36.17c0,1.42,.57,2.12,1.72,2.12,.57,0,1.15-.09,1.72-.29l1.55,5.17c-1.53,.69-3.16,1.03-4.88,1.03-2.33,0-4.16-.68-5.48-2.04Z"/><path class="i" d="M366,73.52l-2.47-9.19h-13.15l-2.47,9.19h-7.87l12.34-39.67h9.36l12.29,39.67h-8.04Zm-14.12-14.93h10.1l-5.05-18.95-5.05,18.95Z"/><path class="i" d="M396.26,42.75l-1.26,7.12c-.92-.23-1.82-.34-2.7-.34-1.8,0-3.21,.64-4.25,1.92-1.03,1.28-1.86,3.24-2.47,5.88v16.19h-7.35v-30.37h6.37l.69,5.97c.73-2.18,1.78-3.86,3.16-5.02,1.38-1.17,2.96-1.75,4.76-1.75,1.11,0,2.12,.13,3.04,.4Z"/><path class="i" d="M416.72,43.15c1.59,.57,3.09,1.47,4.51,2.7l-3.27,4.42c-1.03-.77-2.03-1.32-2.99-1.66-.96-.34-2.01-.52-3.16-.52-4.55,0-6.83,3.46-6.83,10.39,0,3.52,.59,6.06,1.78,7.61,1.19,1.55,2.87,2.33,5.05,2.33,1.07,0,2.06-.17,2.96-.52,.9-.34,1.96-.9,3.19-1.67l3.27,4.65c-2.87,2.33-6.14,3.5-9.82,3.5-2.91,0-5.44-.64-7.58-1.92-2.14-1.28-3.79-3.11-4.94-5.48-1.15-2.37-1.72-5.17-1.72-8.38s.57-6.06,1.72-8.53c1.15-2.47,2.79-4.38,4.94-5.74,2.14-1.36,4.65-2.04,7.52-2.04,1.99,0,3.78,.29,5.37,.86Z"/><path class="i" d="M462.85,73.52v-17.74h-14.12v17.74h-7.58V33.85h7.58v15.9h14.12v-15.9h7.64v39.67h-7.64Z"/><path class="i" d="M503.78,73.52h-6.37l-.4-4.25c-1.11,1.72-2.42,3.01-3.93,3.85-1.51,.84-3.3,1.26-5.37,1.26-2.72,0-4.81-.83-6.29-2.5-1.47-1.67-2.21-3.97-2.21-6.92v-21.82h7.35v20.9c0,1.72,.3,2.95,.89,3.67,.59,.73,1.54,1.09,2.84,1.09,2.33,0,4.38-1.44,6.14-4.31v-21.36h7.35v30.37Z"/><path class="i" d="M536.62,46.51c1.99,2.81,2.99,6.75,2.99,11.8,0,3.14-.49,5.92-1.46,8.35-.98,2.43-2.36,4.33-4.16,5.68-1.8,1.36-3.92,2.04-6.37,2.04-1.65,0-3.15-.34-4.51-1.03s-2.54-1.66-3.53-2.93l-.46,3.1h-6.49V30.98l7.35-.8v16.42c1-1.38,2.21-2.44,3.65-3.19,1.44-.75,3.01-1.12,4.74-1.12,3.52,0,6.28,1.41,8.27,4.22Zm-6.37,19.81c1.11-1.7,1.67-4.37,1.67-8.01,0-3.83-.52-6.53-1.55-8.12-1.03-1.59-2.49-2.38-4.36-2.38-2.33,0-4.34,1.38-6.03,4.13v13.43c.65,1.11,1.46,1.97,2.44,2.58,.98,.61,2.04,.92,3.19,.92,1.99,0,3.54-.85,4.65-2.55Z"/></g><text class="h" transform="translate(161.57 114.9)"><tspan x="0" y="0">Au servi</tspan><tspan class="c" x="58.44" y="0">c</tspan><tspan x="65.89" y="0">e de </tspan><tspan class="k" x="101.98" y="0">l</tspan><tspan x="106.67" y="0">a t</tspan><tspan class="e" x="125.7" y="0">r</tspan><tspan x="131.41" y="0">ans</tspan><tspan class="g" x="157.4" y="0">f</tspan><tspan x="162.68" y="0">ormation digi</tspan><tspan class="j" x="262.43" y="0">t</tspan><tspan class="g" x="268.19" y="0">a</tspan><tspan class="k" x="276.88" y="0">l</tspan><tspan x="281.57" y="0">e des ent</tspan><tspan class="l" x="349.53" y="0">r</tspan><tspan x="355.32" y="0">eprises de </tspan><tspan class="f" x="436" y="0">l</tspan><tspan class="l" x="440.53" y="0">&apos;</tspan><tspan class="d" x="443.6" y="0">A</tspan><tspan class="l" x="452.92" y="0">r</tspan><tspan x="458.72" y="0">c ju</tspan><tspan class="e" x="484.83" y="0">r</tspan><tspan class="g" x="490.54" y="0">as</tspan><tspan x="506.66" y="0">sien</tspan></text></g><g id="b"><path class="m" d="M54.59,133.64c-.24,0-.48,0-.72-.02-2.78-.19-5.32-1.44-7.15-3.54-1.83-2.1-2.74-4.78-2.55-7.56,.39-5.73,5.37-10.07,11.1-9.7h0c.5,.03,1,.1,1.48,.21l6.71-22.17c-6.73-2.65-11.81-8.44-13.54-15.46l-31.6,9.03c0,.09,0,.18-.01,.27-.14,2.13-1.11,4.08-2.72,5.49-1.61,1.41-3.67,2.1-5.8,1.96-2.13-.14-4.08-1.11-5.49-2.72-1.41-1.61-2.1-3.67-1.96-5.8s1.11-4.08,2.72-5.49c1.61-1.41,3.67-2.11,5.8-1.96,2.13,.14,4.08,1.11,5.49,2.72,.55,.63,.99,1.33,1.32,2.08l31.68-9.05c-.09-1.11-.1-2.24-.03-3.39,.27-4.08,1.63-7.93,3.9-11.2l-24.58-19.97c-2.42,2.12-5.64,3.33-9.11,3.09-3.34-.22-6.39-1.74-8.59-4.25s-3.29-5.75-3.07-9.08c.22-3.34,1.74-6.39,4.25-8.59,2.52-2.2,5.75-3.29,9.08-3.07,3.34,.22,6.39,1.74,8.59,4.25s3.29,5.75,3.07,9.08c-.15,2.18-.84,4.19-1.95,5.91l24.51,19.91c.47-.49,.97-.97,1.49-1.42,4.06-3.54,9.14-5.47,14.47-5.52l2.04-30.25c-3.64-1.05-6.2-4.54-5.93-8.47,.31-4.53,4.24-7.97,8.77-7.67h0c4.53,.31,7.97,4.24,7.67,8.77-.26,3.93-3.26,7.04-7.02,7.6l-2.04,30.25c5.28,.76,10.05,3.36,13.6,7.41,.08,.09,.15,.18,.23,.27l25.97-17.26c-1.21-2.04-1.78-4.4-1.61-6.83,.21-3.17,1.65-6.06,4.03-8.14,2.39-2.09,5.45-3.12,8.61-2.91,6.53,.44,11.49,6.11,11.05,12.64-.21,3.17-1.65,6.06-4.03,8.14-2.39,2.09-5.45,3.12-8.61,2.91-2.72-.18-5.24-1.27-7.22-3.09l-26.13,17.37c2.39,3.91,3.51,8.45,3.19,13.11-.12,1.83-.46,3.59-.99,5.26l21.58,10.44c1.53-2.32,4.24-3.77,7.2-3.58h0c4.39,.3,7.72,4.11,7.42,8.5-.3,4.39-4.11,7.72-8.5,7.42-4.39-.3-7.72-4.11-7.42-8.5,.01-.19,.03-.37,.06-.55l-21.67-10.48c-3.92,7.81-12.25,12.93-21.5,12.3-1.13-.08-2.24-.24-3.32-.47l-6.8,22.46c3.2,1.96,5.23,5.59,4.96,9.59-.19,2.78-1.44,5.32-3.54,7.15-1.92,1.67-4.32,2.58-6.84,2.58Zm-.02-17.35c-3.61,0-6.66,2.81-6.9,6.46-.12,1.85,.48,3.63,1.69,5.02,1.22,1.39,2.9,2.23,4.75,2.35,1.85,.12,3.63-.48,5.02-1.69,1.39-1.22,2.23-2.9,2.35-4.75,.26-3.81-2.63-7.12-6.44-7.37-.16-.01-.31-.02-.47-.02Zm66.63-29.16c-2.33,0-4.31,1.82-4.47,4.18-.17,2.46,1.7,4.6,4.17,4.77,2.43,.17,4.6-1.7,4.77-4.17,.17-2.46-1.7-4.6-4.17-4.77h0c-.1,0-.2,0-.3,0Zm-49.6-35.97c-4.56,0-8.92,1.63-12.39,4.66-3.79,3.32-6.07,7.91-6.41,12.94-.7,10.38,7.18,19.39,17.56,20.09,10.37,.71,19.39-7.18,20.09-17.56,.34-5.03-1.3-9.89-4.62-13.68s-7.91-6.07-12.94-6.41h0c-.43-.03-.87-.04-1.3-.04ZM10.31,79.65c-1.09,0-2.13,.39-2.95,1.11-.91,.79-1.45,1.89-1.53,3.08-.08,1.2,.31,2.36,1.1,3.26,.79,.91,1.89,1.45,3.08,1.53,1.21,.08,2.36-.31,3.26-1.1s1.45-1.89,1.53-3.09-.31-2.36-1.1-3.26c-.79-.91-1.89-1.45-3.09-1.53h0c-.1,0-.21-.01-.31-.01ZM124.89,23.92c-2.03,0-3.96,.72-5.5,2.07-1.68,1.47-2.69,3.51-2.84,5.74s.58,4.39,2.05,6.07c1.47,1.68,3.51,2.69,5.74,2.84,4.6,.3,8.61-3.18,8.92-7.79,.31-4.61-3.19-8.61-7.79-8.92h0c-.19-.01-.38-.02-.57-.02ZM20.35,18.93c-2.18,0-4.27,.78-5.93,2.23-1.82,1.59-2.9,3.79-3.07,6.19-.16,2.41,.62,4.73,2.21,6.54,1.59,1.82,3.78,2.9,6.19,3.07,4.96,.32,9.28-3.43,9.61-8.4,.16-2.41-.62-4.73-2.21-6.55s-3.78-2.9-6.19-3.07c-.21-.01-.41-.02-.62-.02ZM75.7,4.76c-2.47,0-4.56,1.92-4.73,4.42-.18,2.61,1.8,4.87,4.41,5.05,2.61,.17,4.87-1.8,5.05-4.41,.18-2.61-1.8-4.87-4.41-5.05h0c-.11,0-.21-.01-.32-.01Zm-4.06,80.48c-.34,0-.68-.01-1.03-.03-8.36-.56-14.71-7.83-14.15-16.19,.27-4.05,2.11-7.75,5.16-10.43,3.06-2.67,6.97-3.99,11.02-3.72,4.05,.27,7.75,2.11,10.43,5.17,2.67,3.06,3.99,6.97,3.72,11.02-.54,8.02-7.24,14.18-15.16,14.18Zm-.03-26.91c-2.83,0-5.53,1.01-7.68,2.89-2.35,2.06-3.77,4.91-3.98,8.03-.43,6.44,4.45,12.03,10.89,12.46,6.44,.43,12.03-4.45,12.46-10.89,.21-3.12-.81-6.13-2.86-8.49-2.06-2.35-4.91-3.77-8.03-3.98-.27-.02-.54-.03-.8-.03Zm.02,19.8c-.18,0-.36,0-.55-.02-4.46-.3-7.84-4.17-7.54-8.63,.3-4.46,4.15-7.84,8.63-7.54,4.46,.3,7.84,4.17,7.54,8.63h0c-.29,4.27-3.86,7.56-8.08,7.56Zm0-12.7c-2.4,0-4.42,1.87-4.59,4.29-.17,2.53,1.75,4.73,4.28,4.9,2.53,.17,4.73-1.75,4.9-4.28h0c.17-2.53-1.75-4.73-4.28-4.9-.1,0-.21-.01-.31-.01Z"/></g></svg>