<svg width="1400" height="600" viewBox="0 0 1400 600" fill="none" xmlns="http://www.w3.org/2000/svg">
<path d="M352.544 170.017H423.004L387.793 71L352.544 170.017ZM429.601 178.754H485.962L457.763 99.5554L429.601 178.754ZM289.209 178.754H345.569L317.37 99.5554L289.209 178.754ZM505.754 185.751H537.309L521.513 141.386L505.754 185.751ZM238.616 185.751H270.17L254.412 141.386L238.616 185.751ZM572.972 197.211H591.897L582.435 170.585L572.972 197.211ZM185.309 197.211H204.234L194.772 170.585L185.309 197.211ZM327.7 251.939H378.443L353.071 180.645L327.7 251.939ZM396.011 252.091H446.717L421.345 180.834L396.011 252.091ZM268.059 262H305.042L286.532 210.033L268.059 262ZM473.672 262H510.655L492.145 210.033L473.672 262ZM134 217.068H149.155L141.578 195.774L134 217.068ZM626.845 216.954H642L634.422 195.661L626.845 216.954Z" fill="#0080C5"/>
<path fill-rule="evenodd" clip-rule="evenodd" d="M127 309.913H155.04L188.672 405.774H189.012L223.022 309.913H250.911V429.974H232.016V335.314H231.676L198.308 429.936H179.414L146.084 335.314H145.895V429.936H127V309.913ZM276.758 363.753H296.182V429.936H276.758V363.753ZM401.085 425.059C390.657 429.469 379.466 431.827 368.132 432C332.913 432 317.344 406.975 317.344 369.569C317.344 334.263 330.494 308.15 364.996 308.15C393.035 308.15 405.657 324.321 405.657 342.93H382.984C382.984 333.55 380.867 322.595 365.109 322.595C343.91 322.595 340.055 347.62 340.055 366.417C340.055 395.119 348.293 416.017 373.007 416.017C383.027 415.558 392.749 412.491 401.198 407.125L401.085 425.059ZM419.79 309.913H456.37C479.044 309.913 495.293 317.905 495.293 341.392C495.293 360.376 483.729 366.267 471.297 369.231V369.569C488.113 373.32 490.191 383.526 492.837 396.207L500.394 429.974H479.346L473.753 404.048C469.521 384.876 467.102 378.461 448.208 378.461H440.272V429.936H419.79V309.913ZM440.272 364.016H448.208C461.018 364.016 474.32 361.389 474.32 343.643C474.32 331.149 467.858 324.358 456.257 324.358H440.272V364.016ZM512.751 369.944C512.751 335.014 523.786 308 561.575 308C599.364 308 610.701 335.014 610.701 369.944C610.701 404.874 599.364 431.85 561.839 431.85C524.315 431.85 512.751 404.911 512.751 369.944ZM561.575 417.555C582.246 417.555 588.027 395.644 588.027 370.094C588.027 344.543 582.435 322.595 561.575 322.595C540.715 322.595 535.123 344.506 535.123 370.094C535.123 395.682 540.791 417.555 561.575 417.555ZM631.674 309.913H656.917L703.511 398.308H703.851V309.913H722.746V429.974H699.808L650.757 337.227H650.417V429.936H631.523L631.674 309.913ZM777.2 309.913H801.914L843.104 429.974H821.715L811.21 397.445H767.752L757.209 429.974H735.858L777.2 309.913ZM772.627 381.95H806.297L789.632 329.236H789.292L772.627 381.95ZM855.801 309.913H892.381C915.054 309.913 931.266 317.905 931.266 341.392C931.266 360.376 919.703 366.267 907.27 369.231V369.569C924.086 373.32 926.164 383.526 928.81 396.207L936.179 429.974H915.319L909.688 404.048C905.532 384.914 903.038 378.498 884.332 378.498H876.283V429.936H855.801V309.913ZM876.283 364.016H884.332C897.105 364.016 910.406 361.389 910.406 343.643C910.406 331.149 903.944 324.358 892.381 324.358H876.283V364.016ZM1032.47 425.059C1022.04 429.469 1010.85 431.827 999.513 432C964.294 432 948.687 406.975 948.687 369.569C948.687 334.263 961.837 308.15 996.377 308.15C1024.42 308.15 1037 324.321 1037 342.93H1014.33C1014.33 333.55 1012.21 322.595 996.452 322.595C975.253 322.595 971.398 347.62 971.398 366.417C971.398 395.119 979.598 416.017 1004.31 416.017C1014.34 415.555 1024.08 412.489 1032.54 407.125L1032.47 425.059Z" fill="#706F6F"/>
<path d="M127 471.035H136.522C141.586 471.035 150.843 472.015 150.843 483.028C150.843 492.381 144.533 495.096 137.278 495.096H130.854V515.272H127.076L127 471.035ZM130.779 491.551H137.542C142.795 491.551 146.989 489.778 146.989 483.216C146.989 475.975 142.077 474.58 136.069 474.58H130.854L130.779 491.551ZM154.546 500.074C154.546 491.174 158.325 484.046 167.167 484.046C176.009 484.046 179.599 491.174 179.599 500.074C179.599 508.974 175.82 515.989 167.167 515.989C158.514 515.989 154.546 508.937 154.546 500.074ZM166.94 512.897C173.515 512.897 175.744 507.579 175.744 500.451C175.744 493.323 173.515 487.138 166.94 487.138C160.365 487.138 158.4 493.437 158.4 500.451C158.4 507.466 160.441 512.897 166.94 512.897ZM165.24 471.827H169.018L174.422 479.37H170.983L167.205 474.618L163.086 479.445H159.685L165.24 471.827ZM187.383 471.035H190.67V515.272H187.458L187.383 471.035ZM219.501 515.197C217.311 515.726 215.066 515.992 212.813 515.989C203.442 515.989 198.303 509.879 198.303 499.169C198.303 489.137 202.497 484.084 209.941 484.084C211.36 484.044 212.772 484.307 214.081 484.856C215.391 485.404 216.567 486.225 217.533 487.264C218.499 488.303 219.231 489.536 219.682 490.88C220.132 492.224 220.289 493.648 220.143 495.058V496.642H202.233V499.81C202.233 502.111 202.233 512.934 213.984 512.934C215.879 512.931 217.763 512.652 219.577 512.105L219.501 515.197ZM216.289 493.437C216.299 492.592 216.14 491.754 215.821 490.971C215.502 490.189 215.029 489.478 214.43 488.881C213.832 488.283 213.12 487.811 212.336 487.493C211.552 487.174 210.712 487.015 209.866 487.025C208.061 486.951 206.297 487.577 204.944 488.773C203.592 489.968 202.755 491.639 202.611 493.437H216.289ZM242.362 484.763H245.574V492.305C245.905 489.993 247.071 487.882 248.852 486.368C250.633 484.854 252.908 484.042 255.247 484.084C256.235 484.042 257.221 484.212 258.138 484.581C259.055 484.95 259.883 485.51 260.566 486.224C261.25 486.938 261.772 487.789 262.099 488.721C262.427 489.652 262.551 490.643 262.464 491.626C262.883 489.592 263.961 487.751 265.531 486.388C267.102 485.025 269.078 484.215 271.155 484.084C274.556 484.084 279.09 485.064 279.09 492.758V515.386H275.878V496.152C275.878 493.022 275.878 487.252 270.928 487.252C265.978 487.252 262.464 495.02 262.464 503.016V515.272H259.252V496.039C259.252 492.909 259.252 487.138 255.474 487.138C249.957 487.138 245.763 495.284 245.763 503.619V515.272H242.551L242.362 484.763ZM288.688 471.035H293.449V476.239H288.688V471.035ZM289.444 484.763H292.693V515.272H289.481L289.444 484.763ZM320.806 515.386C319.033 515.865 317.202 516.093 315.365 516.064C304.974 516.064 300.251 509.314 300.251 499.659C300.251 490.005 303.613 484.121 311.813 484.121C313.116 483.94 314.442 484.05 315.697 484.443C316.952 484.836 318.103 485.502 319.069 486.393C320.034 487.285 320.789 488.379 321.279 489.597C321.769 490.815 321.982 492.126 321.902 493.437H317.708C317.803 492.638 317.729 491.829 317.491 491.061C317.253 490.293 316.855 489.583 316.324 488.979C315.793 488.374 315.141 487.888 314.409 487.551C313.677 487.215 312.883 487.036 312.078 487.025C306.296 487.025 304.52 493.286 304.52 498.943C304.52 507.541 308.299 512.783 316.159 512.783C317.764 512.812 319.366 512.622 320.92 512.218L320.806 515.386ZM328.515 484.763H331.727V490.985C332.309 488.896 333.59 487.069 335.357 485.807C337.123 484.545 339.269 483.924 341.438 484.046V487.516C333.2 487.516 331.613 496.944 331.613 502.978V515.272H328.401L328.515 484.763ZM345.594 500.074C345.594 491.174 349.373 484.046 358.177 484.046C366.981 484.046 370.646 491.174 370.646 500.074C370.646 508.974 366.868 515.989 358.177 515.989C349.486 515.989 345.594 508.937 345.594 500.074ZM357.988 512.897C364.525 512.897 366.792 507.579 366.792 500.451C366.792 493.323 364.525 487.138 357.988 487.138C351.451 487.138 349.373 493.437 349.373 500.451C349.373 507.466 351.489 512.897 358.064 512.897H357.988ZM376.617 497.887H394.301V501.658H376.617V497.887ZM402.652 484.763H406.052V492.305C406.462 489.939 407.719 487.801 409.588 486.289C411.457 484.778 413.812 483.994 416.217 484.084C417.324 484.084 418.419 484.315 419.432 484.762C420.444 485.208 421.353 485.86 422.099 486.676C422.846 487.492 423.414 488.454 423.767 489.501C424.121 490.548 424.252 491.657 424.152 492.758V515.386H420.94V496.152C420.94 493.022 420.94 487.252 415.574 487.252C410.209 487.252 406.052 495.284 406.052 503.619V515.272H402.652V484.763ZM448.827 510.973C447.803 512.585 446.375 513.902 444.685 514.795C442.996 515.687 441.102 516.125 439.191 516.064C438.127 516.1 437.067 515.91 436.081 515.508C435.095 515.106 434.206 514.501 433.471 513.732C432.736 512.962 432.172 512.047 431.816 511.045C431.461 510.043 431.321 508.978 431.407 507.918C431.407 498.113 445.048 498.151 448.827 498.113C448.882 495.947 448.794 493.78 448.562 491.626C448.237 490.238 447.409 489.019 446.236 488.204C445.064 487.39 443.631 487.037 442.214 487.214C437.377 487.214 436.357 489.703 435.828 492.154H432.049C432.049 488.949 434.468 484.121 442.592 484.121C452.001 484.121 452.152 490.419 452.152 494.53V515.348H448.94L448.827 510.973ZM445.615 500.979C439.947 500.979 435.261 503.167 435.261 507.843C435.233 508.445 435.333 509.045 435.554 509.606C435.775 510.166 436.113 510.673 436.545 511.094C436.977 511.514 437.494 511.838 438.06 512.045C438.627 512.252 439.231 512.336 439.833 512.293C441.345 512.267 442.826 511.868 444.145 511.131C445.464 510.394 446.579 509.342 447.391 508.069C448.53 505.984 449.029 503.61 448.827 501.243L445.615 500.979ZM461.976 484.763H465.188V492.305C465.597 489.946 466.848 487.813 468.709 486.302C470.571 484.791 472.917 484.003 475.315 484.084C476.425 484.079 477.524 484.306 478.541 484.75C479.559 485.194 480.472 485.845 481.222 486.662C481.973 487.478 482.544 488.442 482.9 489.492C483.256 490.542 483.388 491.654 483.288 492.758V515.386H480.076V496.152C480.076 493.022 480.076 487.252 474.672 487.252C469.269 487.252 465.037 495.398 465.037 503.732V515.386H461.976V484.763ZM491.072 500.074C491.072 491.174 494.85 484.046 503.692 484.046C512.534 484.046 516.124 491.174 516.124 500.074C516.124 508.974 512.345 515.989 503.692 515.989C495.039 515.989 491.072 508.937 491.072 500.074ZM503.503 512.897C510.04 512.897 512.27 507.579 512.27 500.451C512.27 493.323 510.04 487.138 503.503 487.138C496.966 487.138 494.926 493.361 494.926 500.451C494.926 507.541 496.929 512.897 503.503 512.897ZM537.133 515.725C536.06 515.906 534.972 515.995 533.884 515.989C525.911 515.989 525.76 510.785 525.76 508.446V487.817H520.885V484.725H525.76V477.672L528.971 475.561V484.725H537.133V487.817H528.971V507.089C528.971 509.163 528.971 512.859 533.997 512.859C535.071 512.895 536.14 512.702 537.133 512.293V515.725ZM561.997 515.197C559.807 515.726 557.562 515.992 555.309 515.989C545.937 515.989 540.799 509.879 540.799 499.169C540.799 489.137 544.993 484.084 552.437 484.084C553.856 484.044 555.268 484.307 556.577 484.856C557.886 485.404 559.063 486.225 560.029 487.264C560.995 488.303 561.727 489.536 562.177 490.88C562.627 492.224 562.785 493.648 562.639 495.058V496.642H544.728V499.81C544.728 502.111 544.728 512.934 556.48 512.934C558.375 512.931 560.259 512.652 562.072 512.105L561.997 515.197ZM558.785 493.55C558.795 492.705 558.636 491.867 558.316 491.084C557.997 490.302 557.525 489.591 556.926 488.994C556.327 488.396 555.615 487.924 554.831 487.606C554.047 487.287 553.208 487.128 552.361 487.138C550.559 487.074 548.8 487.703 547.45 488.897C546.099 490.09 545.26 491.756 545.106 493.55H558.785ZM587.88 515.386C586.165 515.826 584.398 516.029 582.628 515.989C572.237 515.989 567.513 509.238 567.513 499.584C567.513 489.929 570.839 484.046 579.076 484.046C580.371 483.908 581.68 484.058 582.91 484.483C584.139 484.909 585.26 485.6 586.191 486.508C587.123 487.416 587.842 488.518 588.297 489.735C588.752 490.952 588.932 492.255 588.825 493.55H584.668C584.758 492.749 584.679 491.939 584.436 491.171C584.193 490.403 583.792 489.694 583.258 489.09C582.724 488.487 582.07 488.001 581.336 487.665C580.603 487.329 579.807 487.149 579.001 487.138C573.219 487.138 571.443 493.399 571.443 499.056C571.443 507.654 575.222 512.897 583.044 512.897C584.649 512.931 586.252 512.74 587.805 512.331L587.88 515.386ZM595.551 471.035H598.763V492.267C599.18 489.905 600.439 487.772 602.306 486.261C604.174 484.751 606.525 483.964 608.927 484.046C610.039 484.042 611.139 484.269 612.159 484.713C613.178 485.156 614.093 485.807 614.847 486.622C615.6 487.438 616.175 488.402 616.535 489.452C616.895 490.501 617.032 491.614 616.938 492.72V515.348H613.877V496.114C613.877 492.984 613.877 487.214 608.436 487.214C602.995 487.214 598.763 495.284 598.763 503.619V515.272H595.551V471.035ZM627.027 484.763H630.239V492.305C630.656 489.942 631.915 487.81 633.782 486.299C635.65 484.788 638.001 484.002 640.403 484.084C641.511 484.084 642.605 484.315 643.618 484.762C644.631 485.208 645.539 485.86 646.286 486.676C647.032 487.492 647.6 488.454 647.954 489.501C648.307 490.548 648.438 491.657 648.339 492.758V515.386H645.127V496.152C645.127 493.022 645.127 487.252 639.761 487.252C634.395 487.252 630.126 495.398 630.126 503.732V515.386H626.914L627.027 484.763ZM657.861 471.035H662.584V476.239H657.861V471.035ZM658.616 484.763H661.828V515.272H658.616V484.763ZM689.186 509.615C688.695 511.537 687.547 513.227 685.938 514.391C684.33 515.555 682.364 516.121 680.381 515.989C675.696 515.989 669.839 512.897 669.839 499.697C669.839 486.497 675.696 484.046 680.381 484.046C682.359 483.936 684.315 484.51 685.919 485.671C687.522 486.832 688.676 488.509 689.186 490.419V484.763H692.397V529H689.186V509.615ZM680.721 512.897C687.901 512.897 689.186 503.468 689.186 499.772C689.186 494.455 686.503 487.138 680.721 487.138C676.036 487.138 673.58 490.91 673.58 499.621C673.58 508.333 676.036 512.897 680.721 512.897ZM720.662 507.768C720.228 510.136 718.954 512.271 717.074 513.78C715.194 515.289 712.833 516.074 710.422 515.989C709.316 515.983 708.224 515.748 707.214 515.3C706.204 514.852 705.298 514.2 704.552 513.385C703.807 512.57 703.239 511.61 702.883 510.566C702.528 509.521 702.393 508.414 702.486 507.315V484.687H705.698V503.921C705.698 507.051 705.698 512.821 711.064 512.821C716.43 512.821 720.775 504.675 720.775 496.34V484.763H723.987V515.272H720.775L720.662 507.768ZM752.516 515.197C750.339 515.727 748.106 515.993 745.865 515.989C736.456 515.989 731.317 509.879 731.317 499.169C731.317 489.137 735.512 484.084 742.956 484.084C744.375 484.044 745.787 484.307 747.096 484.856C748.405 485.404 749.582 486.225 750.548 487.264C751.514 488.303 752.246 489.536 752.696 490.88C753.146 492.224 753.304 493.648 753.158 495.058V496.642H735.247V499.81C735.247 502.111 735.247 512.934 746.999 512.934C748.894 512.934 750.778 512.655 752.591 512.105L752.516 515.197ZM749.304 493.55C749.314 492.705 749.155 491.867 748.835 491.084C748.516 490.302 748.043 489.591 747.445 488.994C746.846 488.396 746.134 487.924 745.35 487.606C744.566 487.287 743.726 487.128 742.88 487.138C741.078 487.074 739.319 487.703 737.969 488.897C736.618 490.09 735.779 491.756 735.625 493.55H749.304ZM792.418 509.578C791.943 511.503 790.805 513.201 789.202 514.373C787.599 515.545 785.634 516.117 783.652 515.989C776.094 515.989 773.147 509.766 773.147 500.074C773.147 492.531 775.943 484.046 784.067 484.046C785.975 484.013 787.838 484.625 789.354 485.782C790.87 486.939 791.95 488.573 792.418 490.419V471.035H795.63V515.272H792.418V509.578ZM783.992 512.897C789.773 512.897 792.418 505.354 792.418 500.263C792.418 494.229 790.037 487.138 784.067 487.138C778.097 487.138 776.888 495.096 776.888 500.225C776.888 505.354 777.643 512.897 783.916 512.897H783.992ZM824.347 515.197C822.158 515.726 819.912 515.992 817.659 515.989C808.288 515.989 803.149 509.879 803.149 499.169C803.149 489.137 807.306 484.084 814.788 484.084C816.205 484.05 817.614 484.317 818.92 484.868C820.227 485.419 821.401 486.24 822.365 487.277C823.33 488.315 824.063 489.545 824.515 490.886C824.968 492.228 825.129 493.65 824.99 495.058V496.642H807.079V499.81C807.079 502.111 807.079 512.934 818.831 512.934C820.725 512.931 822.609 512.652 824.423 512.105L824.347 515.197ZM821.136 493.55C821.146 492.705 820.987 491.867 820.667 491.084C820.348 490.302 819.875 489.591 819.277 488.994C818.678 488.396 817.966 487.924 817.182 487.606C816.398 487.287 815.558 487.128 814.712 487.138C812.907 487.064 811.143 487.691 809.791 488.886C808.438 490.081 807.602 491.753 807.457 493.55H821.136ZM859.791 491.475C864.439 494.002 869.238 496.604 869.238 503.619C869.238 512.896 861.68 515.989 854.123 515.989C850.992 516.004 847.87 515.637 844.828 514.895V511.124C848.142 512.139 851.603 512.598 855.068 512.482C860.358 512.482 865.421 509.54 865.421 504.336C865.421 499.131 860.245 496.793 857.524 495.096L853.745 493.135C849.702 490.872 844.261 488.421 844.261 481.821C844.261 479.935 845.017 470.507 857.751 470.507C860.702 470.55 863.64 470.904 866.517 471.563V475.598C863.694 474.636 860.733 474.139 857.751 474.127C851.062 474.127 848.115 477.295 848.115 481.444C848.115 485.592 852.347 487.666 855.937 489.665L859.791 491.475ZM894.63 507.768C894.212 510.137 892.948 512.275 891.073 513.786C889.197 515.298 886.837 516.08 884.428 515.989C883.319 515.988 882.223 515.757 881.208 515.311C880.194 514.865 879.283 514.214 878.534 513.399C877.784 512.583 877.213 511.622 876.855 510.574C876.497 509.527 876.361 508.417 876.455 507.315V484.687H879.667V503.921C879.667 507.051 879.667 512.821 885.07 512.821C890.474 512.821 894.781 504.675 894.781 496.34V484.763H897.993V515.272H894.781L894.63 507.768ZM907.137 471.035H911.898V476.239H907.137V471.035ZM907.931 484.763H911.143V515.272H907.931V484.763ZM930.981 498.226C934.192 499.772 938.16 501.243 938.16 506.749C938.16 511.237 935.779 515.989 926.484 515.989C923.757 515.906 921.053 515.475 918.436 514.707V511.426C921.031 512.309 923.743 512.804 926.484 512.897C931.887 512.897 934.306 510.483 934.306 507.126C934.306 503.77 930.792 502.186 928.865 501.281L926.295 500.074C923.272 498.603 918.738 497.019 918.738 492.117C918.738 487.214 921.647 484.046 928.827 484.046C931.382 484.057 933.924 484.412 936.384 485.102V488.421C934.064 487.605 931.626 487.172 929.167 487.138C924.935 487.138 922.705 489.137 922.705 491.475C922.705 494.643 925.955 495.737 928.524 496.944L930.981 498.226ZM953.955 498.226C957.167 499.772 961.134 501.243 961.134 506.749C961.134 511.237 958.754 515.989 949.458 515.989C946.731 515.906 944.027 515.475 941.41 514.707V511.426C944.005 512.309 946.717 512.804 949.458 512.897C954.862 512.897 957.28 510.483 957.28 507.126C957.28 503.77 953.766 502.186 951.839 501.281L949.269 500.074C946.246 498.603 941.712 497.019 941.712 492.117C941.712 487.214 944.621 484.046 951.801 484.046C954.356 484.057 956.898 484.412 959.358 485.102V488.421C957.038 487.605 954.6 487.172 952.141 487.138C947.909 487.138 945.68 489.137 945.68 491.475C945.68 494.643 948.929 495.737 951.499 496.944L953.955 498.226ZM986.338 515.197C984.148 515.726 981.903 515.992 979.649 515.989C970.278 515.989 965.14 509.879 965.14 499.169C965.14 489.137 969.334 484.084 976.778 484.084C978.197 484.044 979.609 484.307 980.918 484.856C982.227 485.404 983.404 486.225 984.37 487.264C985.336 488.303 986.068 489.536 986.518 490.88C986.968 492.224 987.126 493.648 986.98 495.058V496.642H969.069V499.81C969.069 502.111 969.069 512.934 980.821 512.934C982.716 512.931 984.6 512.652 986.413 512.105L986.338 515.197ZM983.126 493.55C983.136 492.705 982.977 491.867 982.657 491.084C982.338 490.302 981.865 489.591 981.267 488.994C980.668 488.396 979.956 487.924 979.172 487.606C978.388 487.287 977.549 487.128 976.702 487.138C974.9 487.074 973.141 487.703 971.791 488.897C970.44 490.09 969.601 491.756 969.447 493.55H983.126ZM1006.86 500.074C1006.86 491.174 1010.63 484.046 1019.44 484.046C1028.24 484.046 1031.87 491.174 1031.87 500.074C1031.87 508.974 1028.09 515.989 1019.44 515.989C1010.79 515.989 1006.86 508.937 1006.86 500.074ZM1019.25 512.897C1025.79 512.897 1028.02 507.579 1028.02 500.451C1028.02 493.323 1025.79 487.138 1019.25 487.138C1012.71 487.138 1010.63 493.437 1010.63 500.451C1010.63 507.466 1012.67 512.897 1019.25 512.897ZM1057.34 515.386C1055.61 515.825 1053.83 516.028 1052.05 515.989C1041.66 515.989 1036.93 509.238 1036.93 499.584C1036.93 489.929 1040.3 484.046 1048.5 484.046C1049.79 483.909 1051.1 484.059 1052.33 484.484C1053.57 484.91 1054.69 485.6 1055.62 486.507C1056.56 487.414 1057.28 488.516 1057.74 489.733C1058.2 490.95 1058.38 492.253 1058.28 493.55H1054.09C1054.18 492.748 1054.11 491.936 1053.87 491.165C1053.63 490.394 1053.23 489.683 1052.69 489.078C1052.16 488.473 1051.5 487.987 1050.76 487.653C1050.03 487.319 1049.23 487.143 1048.42 487.138C1042.68 487.138 1040.86 493.399 1040.86 499.056C1040.86 507.654 1044.64 512.897 1052.5 512.897C1054.11 512.925 1055.71 512.735 1057.26 512.331L1057.34 515.386ZM1082.84 515.386C1081.12 515.825 1079.34 516.028 1077.55 515.989C1067.16 515.989 1062.44 509.238 1062.44 499.584C1062.44 489.929 1065.8 484.046 1074 484.046C1075.3 483.908 1076.61 484.058 1077.84 484.483C1079.07 484.909 1080.19 485.6 1081.12 486.508C1082.05 487.416 1082.77 488.518 1083.22 489.735C1083.68 490.952 1083.86 492.255 1083.75 493.55H1079.59C1079.69 492.748 1079.62 491.936 1079.37 491.165C1079.13 490.394 1078.73 489.683 1078.2 489.078C1077.66 488.473 1077.01 487.987 1076.27 487.653C1075.53 487.319 1074.74 487.143 1073.93 487.138C1068.15 487.138 1066.37 493.399 1066.37 499.056C1066.37 507.654 1070.15 512.897 1078.01 512.897C1079.61 512.925 1081.21 512.735 1082.77 512.331L1082.84 515.386ZM1089.99 471.035H1094.75V476.239H1089.99V471.035ZM1090.74 484.763H1093.76V515.272H1090.55L1090.74 484.763ZM1121.12 509.578C1120.66 511.504 1119.53 513.205 1117.93 514.379C1116.34 515.553 1114.37 516.123 1112.39 515.989C1104.84 515.989 1101.85 509.766 1101.85 500.074C1101.85 492.531 1104.68 484.046 1112.77 484.046C1114.68 484 1116.55 484.606 1118.07 485.765C1119.59 486.924 1120.67 488.566 1121.12 490.419V471.035H1124.33V515.272H1121.12V509.578ZM1112.7 512.897C1118.48 512.897 1121.12 505.354 1121.12 500.263C1121.12 494.229 1118.74 487.138 1112.77 487.138C1106.8 487.138 1105.55 495.096 1105.55 500.225C1105.55 505.354 1106.35 512.897 1112.66 512.897H1112.7ZM1153.05 515.197C1150.86 515.724 1148.62 515.99 1146.36 515.989C1136.99 515.989 1131.85 509.879 1131.85 499.169C1131.85 489.137 1136.01 484.084 1143.45 484.084C1144.87 484.045 1146.29 484.308 1147.6 484.856C1148.91 485.404 1150.09 486.225 1151.06 487.263C1152.03 488.301 1152.76 489.533 1153.22 490.877C1153.67 492.221 1153.83 493.646 1153.69 495.058V496.642H1135.74V499.81C1135.74 502.111 1135.74 512.934 1147.5 512.934C1149.39 512.931 1151.28 512.652 1153.09 512.105L1153.05 515.197ZM1149.84 493.55C1149.85 492.705 1149.69 491.867 1149.37 491.084C1149.05 490.302 1148.58 489.591 1147.98 488.994C1147.38 488.396 1146.67 487.924 1145.89 487.606C1145.1 487.287 1144.26 487.128 1143.42 487.138C1141.61 487.064 1139.85 487.691 1138.49 488.886C1137.14 490.081 1136.31 491.753 1136.16 493.55H1149.84ZM1161.06 484.763H1164.27V492.305C1164.68 489.946 1165.93 487.813 1167.79 486.302C1169.66 484.791 1172 484.003 1174.4 484.084C1175.51 484.079 1176.61 484.306 1177.63 484.75C1178.64 485.194 1179.56 485.845 1180.31 486.662C1181.06 487.478 1181.63 488.442 1181.99 489.492C1182.34 490.542 1182.47 491.654 1182.37 492.758V515.386H1179.16V496.152C1179.16 493.022 1179.16 487.252 1173.76 487.252C1168.35 487.252 1164.12 495.398 1164.12 503.732V515.386H1160.91L1161.06 484.763ZM1205.95 515.725C1204.88 515.908 1203.79 515.996 1202.7 515.989C1194.73 515.989 1194.62 510.785 1194.62 508.446V487.817H1189.7V484.725H1194.62V477.672L1197.83 475.561V484.725H1205.95V487.817H1197.83V507.089C1197.83 509.163 1197.83 512.859 1202.82 512.859C1203.89 512.895 1204.96 512.702 1205.95 512.293V515.725ZM1226.85 510.973C1225.8 512.532 1224.38 513.806 1222.72 514.681C1221.06 515.557 1219.21 516.006 1217.33 515.989C1216.26 516.024 1215.2 515.835 1214.22 515.433C1213.23 515.031 1212.34 514.425 1211.61 513.656C1210.87 512.887 1210.31 511.972 1209.95 510.97C1209.6 509.968 1209.46 508.902 1209.54 507.843C1209.54 498.038 1223.18 498.075 1226.96 498.038C1227.02 495.872 1226.93 493.705 1226.7 491.551C1226.37 490.163 1225.54 488.944 1224.37 488.129C1223.2 487.314 1221.77 486.961 1220.35 487.138C1215.51 487.138 1214.49 489.628 1214 492.079H1210.22C1210.22 488.873 1212.64 484.046 1220.76 484.046C1230.17 484.046 1230.32 490.344 1230.32 494.455V515.272H1227.11L1226.85 510.973ZM1223.64 501.092C1217.97 501.092 1213.28 503.28 1213.28 507.956C1213.29 508.536 1213.42 509.107 1213.66 509.636C1213.89 510.165 1214.24 510.64 1214.67 511.032C1215.09 511.424 1215.6 511.724 1216.15 511.915C1216.69 512.106 1217.28 512.183 1217.85 512.142C1219.36 512.103 1220.84 511.698 1222.16 510.963C1223.47 510.227 1224.59 509.182 1225.41 507.918C1226.52 505.822 1227 503.454 1226.81 501.092H1223.64ZM1240.22 471.035H1243.4V515.272H1240.22V471.035ZM1272.3 515.197C1270.13 515.727 1267.9 515.993 1265.65 515.989C1256.25 515.989 1251.11 509.879 1251.11 499.169C1251.11 489.137 1255.3 484.084 1262.74 484.084C1264.16 484.044 1265.58 484.307 1266.89 484.856C1268.19 485.404 1269.37 486.225 1270.34 487.264C1271.3 488.303 1272.04 489.536 1272.49 490.88C1272.94 492.224 1273.09 493.648 1272.95 495.058V496.642H1255.04V499.81C1255.04 502.111 1255.04 512.934 1266.83 512.934C1268.71 512.931 1270.58 512.651 1272.38 512.105L1272.3 515.197ZM1269.09 493.437C1269.1 492.592 1268.94 491.754 1268.62 490.971C1268.31 490.189 1267.83 489.478 1267.23 488.881C1266.64 488.283 1265.92 487.811 1265.14 487.493C1264.36 487.174 1263.52 487.015 1262.67 487.025C1260.87 486.97 1259.12 487.603 1257.77 488.794C1256.42 489.986 1255.58 491.646 1255.41 493.437H1269.09ZM266.923 310H305.465V348.467H266.923V310Z" fill="#C00D0D"/>
<path d="M300 325.384H291.2V316H283.652V325.384H275V333.496H283.652V343H291.2V333.496H300V325.384Z" fill="white"/>
</svg>
